# 3ds Max Wavefront OBJ Exporter v0.97b - (c)2007 guruware
# File Created: 28.05.2018 20:54:35

#
# object Cube
#

v  -0.5033 -0.5033 0.5033
v  -0.5033 -0.5033 -0.5033
v  0.5033 -0.5033 -0.5033
v  0.5033 -0.5033 0.5033
v  -0.5033 0.5033 0.5033
v  0.5033 0.5033 0.5033
v  0.5033 0.5033 -0.5033
v  -0.5033 0.5033 -0.5033
# 8 vertices

vn 0.0000 -1.0000 -0.0000
vn 0.0000 1.0000 -0.0000
vn 0.0000 0.0000 1.0000
vn 1.0000 0.0000 -0.0000
vn 0.0000 0.0000 -1.0000
vn -1.0000 0.0000 -0.0000
# 6 vertex normals

vt 0.0000 1.0000 0.0000
vt -0.0000 0.0000 0.0000
vt 1.0000 -0.0000 0.0000
vt 1.0000 1.0000 0.0000
vt 0.0000 0.0000 0.0000
vt 1.0000 0.0000 0.0000
# 6 texture coords

o Cube
g Cube
f 1/1/1 2/2/1 3/3/1 
f 3/3/1 4/4/1 1/1/1 
f 5/5/2 6/6/2 7/4/2 
f 7/4/2 8/1/2 5/5/2 
f 1/5/3 4/6/3 6/4/3 
f 6/4/3 5/1/3 1/5/3 
f 4/5/4 3/6/4 7/4/4 
f 7/4/4 6/1/4 4/5/4 
f 3/5/5 2/6/5 8/4/5 
f 8/4/5 7/1/5 3/5/5 
f 2/5/6 1/6/6 5/4/6 
f 5/4/6 8/1/6 2/5/6 
# 12 faces

